<?xml version="1.0" encoding="UTF-8"?>
<!DOCTYPE svg PUBLIC "-//W3C//DTD SVG 1.1//EN" "http://www.w3.org/Graphics/SVG/1.1/DTD/svg11.dtd">
<!-- Creator: CorelDRAW -->
<svg xmlns="http://www.w3.org/2000/svg" xml:space="preserve" width="6.82666in" height="6.82666in" style="shape-rendering:geometricPrecision; text-rendering:geometricPrecision; image-rendering:optimizeQuality; fill-rule:evenodd; clip-rule:evenodd"
viewBox="0 0 6.82666 6.82666"
 xmlns:xlink="http://www.w3.org/1999/xlink">
 <defs>
  <style type="text/css">
   <![CDATA[
    .fil1 {fill:none}
    .fil0 {fill:black;fill-rule:nonzero}
   ]]>
  </style>
 </defs>
 <g id="Layer_x0020_1">
  <metadata id="CorelCorpID_0Corel-Layer"/>
  <g id="_294287656">
   <path id="_294289480" class="fil0" d="M4.61426 2.36558l0.413551 0c0.0586102,0 0.111858,0.0239409 0.150421,0.0625039 0.038563,0.038563 0.0625039,0.091811 0.0625039,0.150421l0 0.518224c0,0.0586024 -0.0239409,0.111854 -0.0625039,0.150421 -0.038563,0.038563 -0.091811,0.0625039 -0.150421,0.0625039l-0.413551 0c-0.0586063,0 -0.111854,-0.0239409 -0.150417,-0.0625039 -0.038563,-0.038563 -0.0625039,-0.091811 -0.0625039,-0.150421l0 -0.518224c0,-0.0586102 0.0239409,-0.111858 0.0625039,-0.150421 0.038563,-0.038563 0.091811,-0.0625039 0.150417,-0.0625039zm0.413551 0.106669l-0.413551 0c-0.0291614,0 -0.0557205,0.0119724 -0.075,0.031252 -0.0192795,0.0192795 -0.031252,0.0458425 -0.031252,0.0750039l0 0.518224c0,0.0291614 0.0119724,0.0557244 0.031252,0.0750039 0.0192795,0.0192795 0.0458386,0.031252 0.075,0.031252l0.413551 0c0.0291614,0 0.0557244,-0.0119724 0.0750039,-0.031252 0.0192795,-0.0192835 0.031252,-0.0458425 0.031252,-0.0750039l0 -0.518224c0,-0.0291614 -0.0119724,-0.0557244 -0.031252,-0.0750039 -0.0192795,-0.0192795 -0.0458425,-0.031252 -0.0750039,-0.031252z"/>
   <path id="_294289144" class="fil0" d="M2.95054 2.36558l0.413551 0c0.0586063,0 0.111854,0.0239409 0.150417,0.0625039 0.038563,0.0385669 0.0625039,0.0918189 0.0625039,0.150421l0 0.518224c0,0.0586024 -0.0239409,0.111854 -0.0625039,0.150421 -0.038563,0.038563 -0.091811,0.0625039 -0.150417,0.0625039l-0.413551 0c-0.0586102,0 -0.111858,-0.0239409 -0.150421,-0.0625039 -0.038563,-0.0385669 -0.0625039,-0.0918189 -0.0625039,-0.150421l0 -0.518224c0,-0.0586102 0.0239409,-0.111858 0.0625039,-0.150421 0.038563,-0.038563 0.091811,-0.0625039 0.150421,-0.0625039zm0.413551 0.106669l-0.413551 0c-0.0291614,0 -0.0557244,0.0119724 -0.0750039,0.031252 -0.0192795,0.0192795 -0.031252,0.0458425 -0.031252,0.0750039l0 0.518224c0,0.0291614 0.0119724,0.0557205 0.031252,0.0750039 0.0192795,0.0192795 0.0458425,0.031252 0.0750039,0.031252l0.413551 0c0.0291614,0 0.0557205,-0.0119724 0.075,-0.031252 0.0192795,-0.0192835 0.031252,-0.0458425 0.031252,-0.0750039l0 -0.518224c0,-0.0291614 -0.0119724,-0.0557205 -0.031252,-0.0750039 -0.0192795,-0.0192795 -0.0458386,-0.031252 -0.075,-0.031252z"/>
   <path id="_294289120" class="fil0" d="M1.13734 4.14506l1.12482 0c0.0505984,-0.0337323 0.0983465,-0.095626 0.0667205,-0.158197 -0.0107953,-0.022063 -0.0049685,-0.0479449 0.0126102,-0.063437 0.214055,-0.214933 0.203276,-0.855232 0.194654,-1.05057 -0.0035748,-0.081 -0.000114173,-0.148173 -0.101173,-0.183098 -0.0479409,-0.0165709 -0.108004,-0.0172047 -0.154374,0.00475591 -0.0384528,0.0182126 -0.0650945,0.0540472 -0.0605669,0.108646 0.0397795,0.200673 0.0209134,0.443276 -0.0187283,0.669457 -0.0322559,0.184031 -0.0786496,0.358417 -0.117906,0.489311 -0.00770079,0.0256811 -0.0162756,0.0515748 -0.0236299,0.0772559 -0.00766535,0.0241024 -0.030874,0.0389528 -0.0550512,0.0370079l-0.786555 0.00789764c-0.0291378,0.000283465 -0.0423346,0.0106339 -0.0599213,0.0336417l-0.0208976 0.0273307zm1.27057 0.00599606c0.0170787,0.00888976 0.028748,0.026752 0.028748,0.0473386l0 0.20935c0,0.0294528 -0.0238819,0.0533346 -0.0533346,0.0533346l-1.47654 0c-0.043752,0 -0.0682047,-0.0495433 -0.0434488,-0.0842677l0.120512 -0.205441c0.00298031,-0.0050748 0.00870079,-0.0121535 0.0125315,-0.0171732l0.0909134 -0.118902c0.0119803,-0.0182047 0.0714646,-0.0570866 0.0930354,-0.0572992l0.78948 -0.00771654c0.0401693,-0.130028 0.0914685,-0.316201 0.126484,-0.515996 0.0369488,-0.210835 0.0552323,-0.435169 0.0212953,-0.619071 -0.00238976,-0.0129567 -0.0035748,-0.0194882 -0.00426772,-0.0327362 -0.00533465,-0.101307 0.0471457,-0.168839 0.12185,-0.204217 0.0714173,-0.0338268 0.16028,-0.0345276 0.234374,-0.00892126 0.0941102,0.0325236 0.169634,0.107366 0.169909,0.222031 0.00367717,0.0546654 0.0535748,0.864453 -0.202339,1.16501 0.01,0.0399291 0.0157559,0.107417 -0.0292087,0.174677zm-0.0779213 0.100673l-1.26987 0 -0.0603504 0.102681 1.33022 0 0 -0.102681z"/>
   <path id="_294289360" class="fil0" d="M1.28681 2.36558l0.413547 0c0.0586024,0 0.111854,0.0239409 0.150421,0.0625039 0.038563,0.038563 0.0625039,0.091811 0.0625039,0.150421l0 0.518224c0,0.0586024 -0.0239409,0.111854 -0.0625039,0.150421 -0.0385669,0.038563 -0.0918189,0.0625039 -0.150421,0.0625039l-0.413547 0c-0.0586102,0 -0.111858,-0.0239409 -0.150421,-0.0625039 -0.038563,-0.0385669 -0.0625039,-0.0918189 -0.0625039,-0.150421l0 -0.518224c0,-0.0586102 0.0239409,-0.111858 0.0625039,-0.150421 0.038563,-0.038563 0.091811,-0.0625039 0.150421,-0.0625039zm0.413547 0.106669l-0.413547 0c-0.0291614,0 -0.0557244,0.0119724 -0.0750039,0.031252 -0.0192795,0.0192795 -0.031252,0.0458425 -0.031252,0.0750039l0 0.518224c0,0.0291614 0.0119724,0.0557205 0.031252,0.0750039 0.0192795,0.0192795 0.0458425,0.031252 0.0750039,0.031252l0.413547 0c0.0291614,0 0.0557205,-0.0119724 0.0750039,-0.031252 0.0192795,-0.0192835 0.031252,-0.0458425 0.031252,-0.0750039l0 -0.518224c0,-0.0291614 -0.0119724,-0.0557244 -0.031252,-0.0750039 -0.0192835,-0.0192795 -0.0458425,-0.031252 -0.0750039,-0.031252z"/>
   <path id="_294288472" class="fil0" d="M2.80106 4.14506l1.12482 0c0.0505984,-0.0337323 0.0983465,-0.095626 0.0667205,-0.158197 -0.0107953,-0.022063 -0.0049685,-0.0479449 0.0126102,-0.063437 0.214055,-0.214933 0.203276,-0.855232 0.194654,-1.05057 -0.0035748,-0.081 -0.000114173,-0.148173 -0.101173,-0.183098 -0.0479409,-0.0165709 -0.108004,-0.0172047 -0.154374,0.00475591 -0.0384528,0.0182126 -0.0650945,0.0540472 -0.0605669,0.108646 0.0397795,0.200673 0.0209134,0.443276 -0.0187283,0.669457 -0.0322559,0.184031 -0.0786496,0.358417 -0.117906,0.489311 -0.00770079,0.0256811 -0.0162756,0.0515748 -0.0236299,0.0772559 -0.00766535,0.0241024 -0.030874,0.0389528 -0.0550512,0.0370079l-0.786555 0.00789764c-0.0291378,0.000283465 -0.0423346,0.0106339 -0.0599213,0.0336417l-0.0208976 0.0273307zm1.27057 0.00599606c0.0170787,0.00888976 0.028748,0.026752 0.028748,0.0473386l0 0.20935c0,0.0294528 -0.0238819,0.0533346 -0.0533346,0.0533346l-1.47654 0c-0.043752,0 -0.0682047,-0.0495433 -0.0434488,-0.0842677l0.120512 -0.205441c0.00298031,-0.0050748 0.00870079,-0.0121535 0.0125315,-0.0171732l0.0909134 -0.118902c0.0119803,-0.0182047 0.0714646,-0.0570866 0.0930354,-0.0572992l0.78948 -0.00771654c0.0401693,-0.130028 0.0914685,-0.316201 0.126484,-0.515996 0.0369488,-0.210835 0.0552323,-0.435169 0.0212953,-0.619071 -0.00238976,-0.0129567 -0.0035748,-0.0194882 -0.00426772,-0.0327362 -0.00533465,-0.101307 0.0471457,-0.168839 0.12185,-0.204217 0.0714173,-0.0338268 0.16028,-0.0345276 0.234374,-0.00892126 0.0941102,0.0325236 0.169634,0.107366 0.169909,0.222031 0.00367717,0.0546654 0.0535748,0.864453 -0.202339,1.16501 0.01,0.0399291 0.0157559,0.107417 -0.0292087,0.174677zm-0.0779213 0.100673l-1.26987 0 -0.0603504 0.102681 1.33022 0 0 -0.102681z"/>
   <path id="_294288688" class="fil0" d="M4.46479 4.14506l1.12482 0c0.0505984,-0.0337323 0.0983465,-0.095626 0.0667205,-0.158197 -0.0107953,-0.022063 -0.0049685,-0.0479449 0.0126102,-0.063437 0.214055,-0.214933 0.203276,-0.855232 0.194654,-1.05057 -0.0035748,-0.081 -0.000114173,-0.148173 -0.101173,-0.183098 -0.0479409,-0.0165709 -0.108004,-0.0172047 -0.154374,0.00475591 -0.0384528,0.0182126 -0.0650945,0.0540472 -0.0605669,0.108646 0.0397795,0.200673 0.0209134,0.443276 -0.0187283,0.669457 -0.0322559,0.184031 -0.0786496,0.358417 -0.117906,0.489311 -0.00770079,0.0256811 -0.0162756,0.0515748 -0.0236299,0.0772559 -0.00766535,0.0241024 -0.030874,0.0389528 -0.0550512,0.0370079l-0.786555 0.00789764c-0.0291378,0.000283465 -0.0423346,0.0106339 -0.0599213,0.0336417l-0.0208976 0.0273307zm1.27057 0.00599606c0.0170787,0.00888976 0.028748,0.026752 0.028748,0.0473386l0 0.20935c0,0.0294528 -0.0238819,0.0533346 -0.0533346,0.0533346l-1.47654 0c-0.043752,0 -0.0682047,-0.0495433 -0.0434488,-0.0842677l0.120512 -0.205441c0.00298031,-0.0050748 0.00870079,-0.0121535 0.0125315,-0.0171732l0.0909134 -0.118902c0.0119803,-0.0182047 0.0714646,-0.0570866 0.0930354,-0.0572992l0.78948 -0.00771654c0.0401693,-0.130028 0.0914685,-0.316201 0.126484,-0.515996 0.0369488,-0.210835 0.0552323,-0.435169 0.0212953,-0.619071 -0.00238976,-0.0129567 -0.0035748,-0.0194882 -0.00426772,-0.0327362 -0.00533465,-0.101307 0.0471457,-0.168839 0.12185,-0.204217 0.0714173,-0.0338268 0.16028,-0.0345276 0.234374,-0.00892126 0.0941102,0.0325236 0.169634,0.107366 0.169909,0.222031 0.00367717,0.0546654 0.0535748,0.864453 -0.202339,1.16501 0.01,0.0399291 0.0157559,0.107417 -0.0292087,0.174677zm-0.0779213 0.100673l-1.26987 0 -0.0603504 0.102681 1.33022 0 0 -0.102681z"/>
  </g>
 </g>
 <rect class="fil1" width="6.82666" height="6.82666"/>
</svg>
